{
    "asset" : {
        "generator" : "Khronos glTF Blender I/O v3.3.32",
        "version" : "2.0"
    },
    "extensionsUsed" : [
        "KHR_materials_transmission",
        "KHR_materials_specular",
        "KHR_materials_ior"
    ],
    "scene" : 0,
    "scenes" : [
        {
            "name" : "Scene",
            "nodes" : [
                0
            ]
        }
    ],
    "nodes" : [
        {
            "mesh" : 0,
            "name" : "\u91d1\u5c5e-\u6d4b\u8bd5"
        }
    ],
    "materials" : [
        {
            "doubleSided" : true,
            "extensions" : {
                "KHR_materials_transmission" : {
                    "transmissionFactor" : 0.5982905626296997
                },
                "KHR_materials_specular" : {
                    "specularColorFactor" : [
                        1.0827540605824453,
                        1.0827540605824453,
                        1.0827540605824453
                    ]
                },
                "KHR_materials_ior" : {
                    "ior" : 1.4500000476837158
                }
            },
            "name" : "\u91d1\u5c5e-\u6d4b\u8bd5",
            "normalTexture" : {
                "index" : 0
            },
            "pbrMetallicRoughness" : {
                "baseColorFactor" : [
                    0.053629565984010696,
                    0.07812075316905975,
                    0.17326252162456512,
                    1
                ],
                "metallicFactor" : 0.5123809576034546,
                "roughnessFactor" : 0.3463427424430847
            }
        }
    ],
    "meshes" : [
        {
            "name" : "wSphere.002",
            "primitives" : [
                {
                    "attributes" : {
                        "POSITION" : 0,
                        "NORMAL" : 1,
                        "TEXCOORD_0" : 2
                    },
                    "indices" : 3,
                    "material" : 0
                }
            ]
        }
    ],
    "textures" : [
        {
            "sampler" : 0,
            "source" : 0
        }
    ],
    "images" : [
        {
            "bufferView" : 4,
            "mimeType" : "image/png",
            "name" : "\u91d1\u5c5e-\u6cd5\u7ebf"
        }
    ],
    "accessors" : [
        {
            "bufferView" : 0,
            "componentType" : 5126,
            "count" : 2207,
            "max" : [
                1,
                1,
                0.9987165331840515
            ],
            "min" : [
                -1,
                -1,
                -0.9987165331840515
            ],
            "type" : "VEC3"
        },
        {
            "bufferView" : 1,
            "componentType" : 5126,
            "count" : 2207,
            "type" : "VEC3"
        },
        {
            "bufferView" : 2,
            "componentType" : 5126,
            "count" : 2207,
            "type" : "VEC2"
        },
        {
            "bufferView" : 3,
            "componentType" : 5123,
            "count" : 12276,
            "type" : "SCALAR"
        }
    ],
    "bufferViews" : [
        {
            "buffer" : 0,
            "byteLength" : 26484,
            "byteOffset" : 0,
            "target" : 34962
        },
        {
            "buffer" : 0,
            "byteLength" : 26484,
            "byteOffset" : 26484,
            "target" : 34962
        },
        {
            "buffer" : 0,
            "byteLength" : 17656,
            "byteOffset" : 52968,
            "target" : 34962
        },
        {
            "buffer" : 0,
            "byteLength" : 24552,
            "byteOffset" : 70624,
            "target" : 34963
        },
        {
            "buffer" : 0,
            "byteLength" : 646880,
            "byteOffset" : 95176
        }
    ],
    "samplers" : [
        {
            "magFilter" : 9729,
            "minFilter" : 9987
        }
    ],
    "buffers" : [
        {
            "byteLength" : 742056,
            "uri" : "data:application/octet-stream;base64,"
        }
    ]
}
